<svg height="512" viewBox="0 0 512 512" width="512" xmlns="http://www.w3.org/2000/svg"><g id="Filled_outline" data-name="Filled outline"><path d="m435.378 487.29a31.067 31.067 0 0 1 -35.15-18.16l-40.4-117.13v24.51c12.61 22.06 9.45 50.72-8 71.49v48h-144v-48c-17.14-20.4-19.97-48.4-8-70.3v-25.7l-64 62.42-24 23.41a28.276 28.276 0 0 1 -45.76-32.99l69.76-79.35 20.88-23.75a64.029 64.029 0 0 1 48.07-21.74h43.05v-64h64v64h53.82a47.956 47.956 0 0 1 45.36 32.3l46.24 133.57c6.16 17.82-3.44 37.45-21.87 41.42z" fill="#fec9a3"/><path d="m435.378 487.29a31.067 31.067 0 0 1 -35.15-18.16l-40.4-117.13v24.51c12.61 22.06 9.45 50.72-8 71.49v48h-133.09c70.02-40.16 127.72-96.55 156.44-215.05a48.031 48.031 0 0 1 35.83 31.35l46.24 133.57c6.16 17.82-3.44 37.45-21.87 41.42z" fill="#fec093"/><path d="m284.652 256a43.894 43.894 0 0 0 27.176-9.807v-30.193h-64v30.19a43.892 43.892 0 0 0 27.172 9.81z" fill="#feb784"/><path d="m135.828 325.49v88.93l-24 23.41a28.276 28.276 0 0 1 -45.76-32.99z" fill="#fec093"/><path d="m207.828 496v-48c-19.794-23.557-20.543-57.276-1.4-80h147.485c19.145 22.724 17.708 56.443-2.085 80v48" fill="#3d4d63"/><path d="m351.828 112v56a72.006 72.006 0 0 1 -72 72q-3.345 0-6.6-.3a71.962 71.962 0 0 1 -65.4-71.7v-56a64 64 0 0 1 64-64h16a63.934 63.934 0 0 1 64 64z" fill="#fec9a3"/><path d="m308.318 51.35a88.021 88.021 0 0 0 -65.14 84.99v93.65a72 72 0 0 1 -35.35-61.99v-56a64 64 0 0 1 64-64h16a63.963 63.963 0 0 1 20.49 3.35z" fill="#fec093"/><path d="m351.828 112v56a72.006 72.006 0 0 1 -72 72q-3.345 0-6.6-.3a87.95 87.95 0 0 0 40.93-74.37v-48a87.9 87.9 0 0 0 -33.8-69.33h7.47a64 64 0 0 1 64 64z" fill="#fec093"/><path d="m367.83 112v132.92a63.611 63.611 0 0 1 -40 59.08v-181.4a69.994 69.994 0 0 0 -11.19-38.02c-.66-1.03-1.35-2.04-2.06-3.03a70.066 70.066 0 0 0 -26.75-22.33 71.043 71.043 0 0 0 -8-3.22 71.043 71.043 0 0 0 -8 3.22 70.2 70.2 0 0 0 -40 63.38v181.4c-.8-.32-1.59-.65-2.37-1.01a63.609 63.609 0 0 1 -37.63-58.07v-132.92a88.03 88.03 0 0 1 80-87.64q3.945-.36 8-.36t8 .36a87.069 87.069 0 0 1 23 5.26 88.037 88.037 0 0 1 57 82.38z" fill="#ffa912"/><path d="m229.46 302.99c.8-1.09 1.59-2.18 2.37-3.28v4.29c-.8-.32-1.59-.65-2.37-1.01z" fill="#f7a116"/><path d="m367.83 112v132.92a63.611 63.611 0 0 1 -40 59.08v-181.4a69.994 69.994 0 0 0 -11.19-38.02 204.783 204.783 0 0 0 -5.81-54.96 88.037 88.037 0 0 1 57 82.38z" fill="#f7a116"/><path d="m69.912 240-13.988 174.869c-1.43 17.871 13.265 33.131 31.905 33.131 17.672 0 32-13.777 32-30.771v-177.229z" fill="#fec9a3"/><path d="m158.64 172.681-134.64 50.143 9.559 31.481 139.421-34.402z" fill="#3d4d63"/><path d="m156.251 164.81c-16.818 5.19-26.172 23.49-20.892 40.876s23.193 27.275 40.011 22.087 26.171-23.488 20.891-40.875-23.193-27.276-40.01-22.088z" fill="#3d4d63"/><path d="m125.8 174.2-68.516 21.141 14.339 47.222a16.111 16.111 0 0 0 20 11.043l38.065-11.742a16.286 16.286 0 0 0 10.446-20.438z" fill="#fec9a3"/><path d="m140.139 221.426-4.971-16.369a18.025 18.025 0 0 1 -12.048 12.815l-43.254 13.343a17.519 17.519 0 0 1 -11.878-.622l3.635 11.97a16.111 16.111 0 0 0 20 11.043l38.065-11.742a16.286 16.286 0 0 0 10.451-20.438z" fill="#fec093"/><path d="m431.828 488a32 32 0 0 1 -32-32v-1.837a32 32 0 0 1 2.288-11.885l13.712-34.278h48v48a32 32 0 0 1 -32 32z" fill="#fec9a3"/><path d="m439.828 264h32v48h-32z" fill="#374559"/><path d="m431.106 223.406-15.278 37.427 56.721 19.76 15.279-37.427z" fill="#3d4d63"/><path d="m439.828 312h32v184h-32z" fill="#d6d6d4"/><path d="m479.828 408h-56a16 16 0 0 1 -16-16v-32a16 16 0 0 1 16-16h56z" fill="#fec9a3"/><path d="m463.828 344h16v64h-16z" fill="#fec093"/><path d="m347.766 368c-34.25 66.29-84.748 107.447-116.683 128h120.745v-48c19.793-23.557 21.231-57.276 2.086-80z" fill="#374559"/><path d="m439.828 424v-16h-24l-6.4 16z" fill="#fec093"/><path d="m439.828 408h32v16h-32z" fill="#c7c7c5"/><path d="m287.828 24.36v34.86a71.043 71.043 0 0 0 -8-3.22 71.043 71.043 0 0 0 -8 3.22v-34.86q3.945-.36 8-.36t8 .36z" fill="#f7a116"/><path d="m280 200a24.027 24.027 0 0 0 24-24h-16a8 8 0 0 1 -16 0h-16a24.027 24.027 0 0 0 24 24z"/><path d="m16.507 225.131 9.6 31.52a8 8 0 0 0 7.648 5.671c.636 0 27.062-6.449 27.062-6.449l-12.711 158.363a37.64 37.64 0 0 0 10.054 28.82 40.651 40.651 0 0 0 29.84 12.944c.268 0 .648 0 1.1-.035.463.032.86.035 1.136.035a36.291 36.291 0 0 0 27.617-12.7l74.147-72.321v4.678c-11.983 23.579-9.255 52.9 8 75.166v45.177h16v-48a8 8 0 0 0 -1.875-5.146c-16.577-19.729-17.9-47.273-3.635-66.854h139.7c14.036 19.375 12.439 46.911-4.318 66.854a8 8 0 0 0 -1.872 5.146v48h16v-45.174a74.728 74.728 0 0 0 13.539-27.707l19.413 48.28a38.755 38.755 0 0 0 36.008 24.601h19.04v-80h16v80h16v-83.637a19.172 19.172 0 0 0 8-15.563v-41.6a19.172 19.172 0 0 0 -8-15.563v-55.763c.04-.088.092-.167.128-.257l15.279-37.428a8 8 0 0 0 -4.775-10.578l-56.722-19.759a8 8 0 0 0 -10.038 4.531l-15.279 37.428a8 8 0 0 0 4.775 10.578l18.632 6.49v61.121h-4.165l-9.077-26.3a56.1 56.1 0 0 0 -48.192-37.492 71.078 71.078 0 0 0 5.434-27.328v-132.88a96.127 96.127 0 0 0 -88-95.664v-.336h-16v.333a95.944 95.944 0 0 0 -88 95.667v48.051a39.054 39.054 0 0 0 -50.343 11.929l-.03-.1a8 8 0 0 0 -10.013-5.32l-68.514 21.14a8 8 0 0 0 -5.3 9.969l1.921 6.328-30.354 11.303a8 8 0 0 0 -4.86 9.831zm53.413 207.076a21.809 21.809 0 0 1 -5.865-16.687l12.5-155.792a23.378 23.378 0 0 0 17.6 1.523l17.841-5.5v161.449c0 12.28-10.066 22.238-22.939 22.72h-.177v.006a7.959 7.959 0 0 0 -1.046.073 24.6 24.6 0 0 1 -17.914-7.792zm77.76-197.784 2.8-.678a38.885 38.885 0 0 0 33.524-.8v11.935a71.129 71.129 0 0 0 5.393 27.227 72.526 72.526 0 0 0 -53.435 28.244l-7.962 10.439v-59.978l4.224-1.3a23.837 23.837 0 0 0 15.456-15.089zm284.32 245.341c-.512.064-1.038.109-1.571.141a23.9 23.9 0 0 1 -22.429-23.905v-1.84a24.313 24.313 0 0 1 1.753-8.963l11.663-29.197h10.584zm-8-79.764a8.009 8.009 0 0 1 -8-8v-32a8.009 8.009 0 0 1 8-8h44.8a3.2 3.2 0 0 1 3.2 3.2v41.6a3.2 3.2 0 0 1 -3.2 3.2zm11.816-166.542 41.591 14.489-9.223 22.595-41.591-14.489zm28.184 52.569v17.973h-16v-23.547zm-16 33.973h16v16h-16zm-44.362-5.07 8.381 24.288a24.007 24.007 0 0 0 -12.019 20.782v32a23.925 23.925 0 0 0 7.01 16.934l-9.164 22.909-1.768 4.444-28.078-69.835v-30.452h-16v24h-144v-24h-16v12.628l-64 62.429v-73.875l20.677-27.125a56.372 56.372 0 0 1 44.523-22.057h5.292a70.993 70.993 0 0 0 30.52 23.421 8 8 0 0 0 10.988-7.421v-16h8a8 8 0 0 0 8-8v-35.7a79.708 79.708 0 0 0 48 0v35.7a8 8 0 0 0 8 8h8v16a8 8 0 0 0 10.954 7.435 70.835 70.835 0 0 0 30.598-23.435h4.288a40.065 40.065 0 0 1 37.798 26.93zm-123.647-250.436a62.214 62.214 0 0 1 40.009 58.066v6.14a12 12 0 1 0 0 22.6v66.6a62.391 62.391 0 0 1 -11.578 7.425 63.849 63.849 0 0 1 -56.883-.019 62.254 62.254 0 0 1 -11.539-7.406v-66.6a12 12 0 1 0 0-22.6v-6.14a62.041 62.041 0 0 1 39.991-58.066zm80.009 47.506v132.88a54.939 54.939 0 0 1 -9.289 30.67 8.1 8.1 0 0 0 -.43.723 55.336 55.336 0 0 1 -14.281 14.427v-168.14a78.2 78.2 0 0 0 -48-72.087v-18.073a80.11 80.11 0 0 1 72 79.6zm-136.583-56.583a79.377 79.377 0 0 1 48.583-23.024v18.071a78.012 78.012 0 0 0 -48 72.1v168.107a56.241 56.241 0 0 1 -24-45.791v-26.88a41.417 41.417 0 0 0 4.088-33.426 42.171 42.171 0 0 0 -4.088-9.293v-63.281a79.483 79.483 0 0 1 23.417-56.583zm-64.636 117.038a22.967 22.967 0 0 1 6.77-1.024 23.392 23.392 0 0 1 11 2.775 25.071 25.071 0 0 1 12.233 15.016c4 13.157-3 27.021-15.595 30.907a23.108 23.108 0 0 1 -17.765-1.752 25.069 25.069 0 0 1 -12.232-15.017c-4.001-13.155 2.995-27.019 15.589-30.905zm-38.129 11.763 12 39.532a8.294 8.294 0 0 1 -5.149 10.47l-38.061 11.742a7.57 7.57 0 0 1 -5.825-.585 8.568 8.568 0 0 1 -4.167-5.138l-12.025-39.6zm-64.271 35.114 5.835 19.218c-.031.168-.051.34-.072.512l-22.944 5.671-5.2-17.064z"/><path d="m128 104a16 16 0 1 0 15.952 16.951l7.939-47.636a8 8 0 0 0 -7.891-9.315h-48a8 8 0 0 0 -7.891 6.685l-5.589 33.533a15.992 15.992 0 1 0 13.432 16.733l6.825-40.951h31.779l-4.036 24.218a15.985 15.985 0 0 0 -2.52-.218z"/></g></svg>