<svg height="512" viewBox="0 0 512 512" width="512" xmlns="http://www.w3.org/2000/svg"><g id="Filled_outline" data-name="Filled outline"><path d="m223.958 402.62c-1.39 48.05-42.73 85.38-90.8 85.38h-18.32c-37.85 0-71.52-23.14-84.81-56.45a84.5 84.5 0 0 1 -5.99-28.93 87.638 87.638 0 0 1 17.72-55.63c14.66-19.36 17.99-44.35 14.69-68.41a48.035 48.035 0 0 1 -.39-8.93c1.23-25.91 23.92-45.65 49.86-45.65h36.16a51.28 51.28 0 0 1 33.19 12.22 46.811 46.811 0 0 1 16.67 33.43 48.035 48.035 0 0 1 -.39 8.93c-3.3 24.06.03 49.05 14.69 68.41a87.638 87.638 0 0 1 17.72 55.63z" fill="#7a432a"/><path d="m223.958 402.62c-1.39 48.05-42.73 85.38-90.8 85.38h-18.32c-37.85 0-71.52-23.14-84.81-56.45 54.72-26.51 119.04-81.55 145.24-195.33a46.811 46.811 0 0 1 16.67 33.43 48.035 48.035 0 0 1 -.39 8.93c-3.3 24.06.03 49.05 14.69 68.41a87.638 87.638 0 0 1 17.72 55.63z" fill="#743b20"/><path d="m103.998 32h40v304h-40z" fill="#8f4d2e"/><circle cx="123.998" cy="324" fill="#4f2816" r="36"/><path d="m143.998 112h-40l-8-24v-64h56v64z" fill="#95573a"/><g fill="#7a432a"><path d="m151.998 32h24v16h-24z"/><path d="m151.998 64h24v16h-24z"/><path d="m71.998 32h24v16h-24z"/><path d="m71.998 64h24v16h-24z"/></g><path d="m87.998 408h72v32h-72z" fill="#95573a"/><path d="m87.998 424h72v16h-72z" fill="#8f4d2e"/><path d="m136 448v-128.163a48 48 0 0 1 39.154-47.178l88.846-16.659v-72h48 48v72l88.846 16.659a48 48 0 0 1 39.154 47.175v128.166" fill="#fec9a3"/><path d="m287.065 280h24.935l24.935-.009a31.932 31.932 0 0 0 23.065-9.9v-70.115h-48-48v70.124a31.934 31.934 0 0 0 23.065 9.9z" fill="#feb784"/><path d="m488 319.83v128.17h-72v48h-208v-48h-72v-128.16a48 48 0 0 1 39.15-47.18l73.54-13.79 14.95 25.37a56.393 56.393 0 0 0 96.82.58l15.63-25.81 47.67 8.94 25.09 4.71a47.984 47.984 0 0 1 39.15 47.17z" fill="#3d4d63"/><path d="m488 319.83v128.17h-72v48h-208v-48h-5.36c87-37.14 160.08-82 221.12-180.05l25.09 4.71a47.984 47.984 0 0 1 39.15 47.17z" fill="#374559"/><path d="m200 344h16v104h-16z" fill="#22303d"/><path d="m408 344h16v104h-16z" fill="#22303d"/><path d="m384 95.44v57.12a71.44 71.44 0 0 1 -71.44 71.44h-1.12a71.412 71.412 0 0 1 -71.44-71.44v-57.12a71.407 71.407 0 0 1 71.44-71.44h1.12a71.434 71.434 0 0 1 71.44 71.44z" fill="#fec9a3"/><path d="m384 95.44v57.12a71.44 71.44 0 0 1 -71.44 71.44h-1.12a70.942 70.942 0 0 1 -23.82-4.08 87.8 87.8 0 0 0 32.05-67.92v-48a87.721 87.721 0 0 0 -25.77-62.22 88.648 88.648 0 0 0 -13.18-10.85 71.155 71.155 0 0 1 30.72-6.93h1.12a71.434 71.434 0 0 1 71.44 71.44z" fill="#fec093"/><circle cx="276" cy="116" fill="#7a432a" r="12"/><circle cx="340" cy="116.004" fill="#7a432a" r="12"/><path d="m328 160h-32a8 8 0 0 1 -7.844-9.57l8-40 15.688 3.14-6.086 30.43h22.242z" fill="#f7a468"/><path d="m392 392 48-24h48v72h-40l-48 8-192 40h-48a24 24 0 0 1 -24-24v-56z" fill="#feb784"/><path d="m232 392-48-24h-48v72h40l48 8 192 40h48a24 24 0 0 0 24-24v-56z" fill="#fec9a3"/><path d="m384 112v27.161a325.644 325.644 0 0 1 -16.707 102.967 32 32 0 0 1 -30.359 21.884l-24.934.01h-24.935a32 32 0 0 1 -30.359-21.884 325.671 325.671 0 0 1 -16.706-102.967v-27.161l32 48h72z" fill="#f7a116"/><path d="m302.891 192h-14.891v-16h14.891c10.953 0 21.554-2.52 29.078-6.91l8.062 13.82c-10.047 5.863-23.231 9.09-37.14 9.09z" fill="#fec9a3"/><path d="m256 280a35.778 35.778 0 0 0 0-32 35.778 35.778 0 0 1 0-32 35.778 35.778 0 0 0 0-32 35.778 35.778 0 0 1 0-32l8-16 48-112h-32a64 64 0 0 0 -64 64v48l-8 16a35.778 35.778 0 0 0 0 32 35.778 35.778 0 0 1 0 32 35.778 35.778 0 0 0 0 32 35.778 35.778 0 0 1 0 32z" fill="#ffb531"/><path d="m412.223 216a35.778 35.778 0 0 1 0-32 35.778 35.778 0 0 0 0-32l-8-16v-48a64 64 0 0 0 -64-64h-32l48 112 8 16a35.778 35.778 0 0 1 0 32 35.778 35.778 0 0 0 0 32 35.778 35.778 0 0 1 0 32 35.778 35.778 0 0 0 0 32h48a35.778 35.778 0 0 1 0-32 35.778 35.778 0 0 0 0-32z" fill="#ffb531"/><path d="m412.22 216a35.752 35.752 0 0 1 0 32 35.816 35.816 0 0 0 0 32h-48a35.837 35.837 0 0 1 0-32 35.752 35.752 0 0 0 0-32 35.837 35.837 0 0 1 0-32 35.752 35.752 0 0 0 0-32l-6.2-12.41-1.8-3.59-48-112h32a63.978 63.978 0 0 1 64 64v48l8 16a35.752 35.752 0 0 1 0 32 35.816 35.816 0 0 0 0 32z" fill="#ffb531"/><path d="m412.22 216a35.752 35.752 0 0 1 0 32 35.816 35.816 0 0 0 0 32h-48a35.837 35.837 0 0 1 0-32 35.752 35.752 0 0 0 0-32 35.837 35.837 0 0 1 0-32 35.752 35.752 0 0 0 0-32l-6.2-12.41c11.76-24.37 22.72-53.8 32.94-90.61a63.705 63.705 0 0 1 13.26 39.02v48l8 16a35.752 35.752 0 0 1 0 32 35.816 35.816 0 0 0 0 32z" fill="#ffa912"/><path d="m450.347 264.776-33.34-6.218a27.575 27.575 0 0 1 2.372-6.981 43.986 43.986 0 0 0 0-39.154 27.914 27.914 0 0 1 0-24.846 43.989 43.989 0 0 0 0-39.155l-7.155-14.311v-46.111a72.081 72.081 0 0 0 -72-72h-60.224a72.081 72.081 0 0 0 -72 72v46.111l-7.155 14.311a43.984 43.984 0 0 0 0 39.156 27.917 27.917 0 0 1 0 24.844 43.984 43.984 0 0 0 0 39.156 27.635 27.635 0 0 1 2.508 7.654l-4.7.88c-4.969-22.007-23.586-39.345-46.658-43.236v-103.576l7.59-22.769a8.027 8.027 0 0 0 .415-2.531v-8h16v-16h-16v-16h16v-16h-16v-8a8 8 0 0 0 -8-8h-56a8 8 0 0 0 -8 8v8h-16v16h16v16h-16v16h16v8a8.027 8.027 0 0 0 .41 2.53l7.59 22.77v103.575c-26.219 4.412-46.664 26.156-47.909 52.384a54.714 54.714 0 0 0 .463 10.381c2.373 17.424 2.013 42.411-13.191 62.515a95.842 95.842 0 0 0 -19.363 60.725 93.879 93.879 0 0 0 30.492 66.3 100.08 100.08 0 0 0 68.308 26.82s94.3-.057 94.833-.168l102.335-21.332 102.4 21.333c.537.112 49.632.168 49.632.168a32.036 32.036 0 0 0 32-32v-144.161a56.017 56.017 0 0 0 -45.653-55.064zm-8.458 111.224h38.111v23.484l-75.627-4.726zm38.111-56.16v40.16h-40a7.994 7.994 0 0 0 -3.578.845l-12.422 6.211v-23.056h-16v31.056l-18.126 9.063-77.279 4.9-78.472-4.9-18.123-9.063v-31.056h-16v23.056l-12.422-6.211a7.994 7.994 0 0 0 -3.578-.845h-40v-40.164a40.022 40.022 0 0 1 32.629-39.315l24.44-4.582c-.077.16-.145.324-.224.483a8 8 0 0 0 7.155 11.578h48c.2 0 .39-.027.584-.041l.2.34a64.351 64.351 0 0 0 23.455 23.19c29.941 17.111 69.21 6.951 87.056-22.5l.605-.989h44.32a8 8 0 0 0 7.155-11.577c-.207-.414-.4-.834-.582-1.256l28.611 5.336a40.009 40.009 0 0 1 32.596 39.337zm-384 112.16v-16h32v16zm40-150.33a44.747 44.747 0 0 0 -12-1.67 43.853 43.853 0 0 0 -12 1.677v-161.677h24zm-27.562 19.066a27.983 27.983 0 0 1 15.562-4.736 28.632 28.632 0 0 1 8.713 1.381 55.8 55.8 0 0 0 -4.713 22.455v31.857a27.981 27.981 0 0 1 -19.562-50.957zm201.674-252.021 24.288 56.679a11.989 11.989 0 0 0 9.416 21.972l3.49 8.142-7.058 8.492h-34.489l6.086-30.431-15.69-3.138-6.714 33.569h-13.16l-4.264-6.4 4.12-9.612a11.976 11.976 0 0 0 8.637-20.153zm-4.374 254.762a46.52 46.52 0 0 1 -17.529-5.863 48.372 48.372 0 0 1 -17.648-17.455l-3.878-6.538a44.183 44.183 0 0 0 .765-14.777 40.227 40.227 0 0 0 19.592 5.156h49.92a39.859 39.859 0 0 0 15.643-3.222 44.042 44.042 0 0 0 2.34 17.753l-1.3 2.123a49.436 49.436 0 0 1 -47.905 22.823zm-42.583-123.055a27.917 27.917 0 0 1 0-24.844l.693-1.385 1.5 2.245a8 8 0 0 0 6.652 3.562h72a8 8 0 0 0 6.151-2.885l4.8-5.772 2.117 4.234a27.914 27.914 0 0 1 0 24.846 43.986 43.986 0 0 0 0 39.154 27.731 27.731 0 0 1 2.882 11.223c-.054.163-.108.331-.164.478-.038.1-.074.206-.108.31a23.981 23.981 0 0 1 -22.718 16.412h-49.92a24.266 24.266 0 0 1 -17.247-7.277 23.862 23.862 0 0 1 -5.483-9.093c-.967-2.9-1.866-5.759-2.665-8.354a27.535 27.535 0 0 1 1.51-3.7 43.984 43.984 0 0 0 0-39.154zm77.069-148.422a56.063 56.063 0 0 1 56 56v48a8.007 8.007 0 0 0 .844 3.578l8 16a27.914 27.914 0 0 1 0 24.846 43.986 43.986 0 0 0 0 39.154 27.914 27.914 0 0 1 0 24.846 43.988 43.988 0 0 0 -3.868 27.576h-31.571a27.935 27.935 0 0 1 1.75-20.423 43.746 43.746 0 0 0 4.572-18.737 8.125 8.125 0 0 0 .049-.84v-.16h-.03a43.786 43.786 0 0 0 -4.592-19.417 27.914 27.914 0 0 1 0-24.846 43.989 43.989 0 0 0 0-39.155l-51.023-116.422zm-125.069 148.422a27.917 27.917 0 0 1 0-24.844l8-16a7.994 7.994 0 0 0 .845-3.578v-48a56.063 56.063 0 0 1 56-56h19.868l-51.023 116.422a43.984 43.984 0 0 0 0 39.156 27.917 27.917 0 0 1 0 24.844 43.984 43.984 0 0 0 0 39.156 27.927 27.927 0 0 1 1.755 20.422h-31.578a43.978 43.978 0 0 0 -3.867-27.578 27.917 27.917 0 0 1 0-24.844 43.984 43.984 0 0 0 0-39.156zm-32.228 82.64-9.247 1.738a55.779 55.779 0 0 0 -21.68 9.1v-40.717c15.274 3.567 27.4 15.239 30.927 29.879zm-78.927-231.062h40v54.7l-5.766 17.3h-28.468l-5.766-17.3zm-72 370.427a79.961 79.961 0 0 1 16.144-50.641c18.48-24.438 19.046-53.9 16.263-74.328a38.9 38.9 0 0 1 -.333-7.4c.844-17.839 14.278-32.758 31.926-36.878v56.9a43.988 43.988 0 0 0 28 77.92c1.343 0 2.677-.064 4-.184v32.184h-40a8 8 0 0 0 -8 8v32a8 8 0 0 0 8 8h40v16a32.041 32.041 0 0 0 4.228 16h-17.428c-44.374 0-81.52-34.811-82.8-77.573zm175.175 77.573h-47.175a15.475 15.475 0 0 1 -5.835-1.157c-.051-.022-.1-.042-.154-.062a15.7 15.7 0 0 1 -10.011-14.781v-16h31.338l47.188 7.868 50.229 10.464zm272.825-16a16.019 16.019 0 0 1 -16 16h-47.176l-191.192-39.832c-.106-.022-.211-.042-.317-.059l-48-8a8.049 8.049 0 0 0 -1.315-.109h-32v-56h38.111l46.311 23.155c.961.481 83.578 5.861 83.578 5.861v.024h.391l167.609 10.476z"/><path d="m340.031 182.908-8.062-13.821c-7.529 4.392-18.127 6.913-29.078 6.913h-14.891v16h14.891c13.901 0 27.09-3.23 37.14-9.092z"/></g></svg>