<svg height="512" viewBox="0 0 64 64" width="512" xmlns="http://www.w3.org/2000/svg"><g id="Guitar_Player" data-name="Guitar Player"><path d="m35.8 39.75a3.93 3.93 0 0 1 -1.38.25h-22.84a3.93 3.93 0 0 1 -1.38-.25 3.991 3.991 0 0 1 -2.59-4.29l2.26-16.68.73-5.39a11.991 11.991 0 0 1 11.89-10.39h1.02a11.991 11.991 0 0 1 11.89 10.39l.7 5.19 2.29 16.88a3.991 3.991 0 0 1 -2.59 4.29z" fill="#57565c"/><path d="m39.43 41.7a9.83 9.83 0 0 0 -3.45-1.89l-.18-.06-2.61-.81.11 1.06.31 3.11a7.9 7.9 0 0 0 1.5 3.92 7.534 7.534 0 0 0 .73.86 9.256 9.256 0 0 1 2.16 6.11 10.51 10.51 0 0 1 -.47 3.06 7.33 7.33 0 0 1 -1.82 3.17 4.4 4.4 0 0 0 -.66.77h7.95v-11.65a9.947 9.947 0 0 0 -3.57-7.65z" fill="#ffc477"/><path d="m35.84 47.89a7.534 7.534 0 0 1 -.73-.86 7.9 7.9 0 0 1 -1.5-3.92l-.31-3.11-.11-1.06-2.99-.94-1.2-.37v9.37c-3 0-6 1.24-6 4 0-2.76-3-4-6-4v-9.37l-1.2.37-2.99.94-.11 1.06-.31 3.11a7.932 7.932 0 0 1 -2.23 4.78 9.256 9.256 0 0 0 -2.16 6.11 9.07 9.07 0 0 0 2.29 6.23 4.4 4.4 0 0 1 .66.77h24.1a4.4 4.4 0 0 1 .66-.77 7.33 7.33 0 0 0 1.82-3.17 10.51 10.51 0 0 0 .47-3.06 9.256 9.256 0 0 0 -2.16-6.11z" fill="#ed539d"/><path d="m56.21 53.19c-1.43 5.33-6.45 8.62-13.21 6.81a12.32 12.32 0 0 1 -5.47-2.94 9.444 9.444 0 0 1 -2.57-9.57 3.533 3.533 0 0 1 .15-.46c.78-2.29 2.62-3.79 4.32-5.33a13.381 13.381 0 0 0 2.61-2.94c.63-1.08.08-2.53.41-3.75a6.981 6.981 0 0 1 6.57-5.18 6.549 6.549 0 0 1 2 .23 6.818 6.818 0 0 1 1.85.8 6.983 6.983 0 0 1 3.1 7.77c-.33 1.23-1.52 2.21-1.51 3.45.03 3.6 2.82 7.14 1.75 11.11z" fill="#ff9811"/><path d="m53.23 14.09-.96-.26 1.14-2.8 1.13-2.81.76-1.86 3.87 1.03-.28 2-.41 2.99-.42 3-.96-.26z" fill="#ff9811"/><path d="m57.1 15.12-4.22 15.73-.01.01a6.818 6.818 0 0 0 -1.85-.8 6.549 6.549 0 0 0 -2-.23v-.01l4.21-15.73z" fill="#ffa733"/><path d="m49.47 35.85a3 3 0 1 1 -3.67 2.12 3.005 3.005 0 0 1 3.67-2.12z" fill="#cc7400"/><path d="m35.96 18.6a1.752 1.752 0 0 1 .04.4 2 2 0 0 1 -3 1.73v-3.46a2 2 0 0 1 2.96 1.33z" fill="#ffb655"/><path d="m33 20.73v2.27a10 10 0 0 1 -20 0v-8h20z" fill="#ffc477"/><path d="m27 37v-4.84a9.944 9.944 0 0 1 -8 0v4.84l-2 .63v9.37c3 0 6 1.24 6 4 0-2.76 3-4 6-4v-9.37z" fill="#ffc477"/><path d="m13 17.27v3.46a2 2 0 0 1 -3-1.73 1.275 1.275 0 0 1 .01-.2 2 2 0 0 1 2.99-1.53z" fill="#ffb655"/><path d="m10.2 39.75-.18.06a9.989 9.989 0 0 0 -7.02 9.54v11.65h7.95a4.4 4.4 0 0 0 -.66-.77 9.07 9.07 0 0 1 -2.29-6.23 9.256 9.256 0 0 1 2.16-6.11 7.932 7.932 0 0 0 2.23-4.78l.31-3.11.11-1.06z" fill="#ffc477"/><path d="m27 32.16v2a9.944 9.944 0 0 1 -8 0v-2a9.944 9.944 0 0 0 8 0z" fill="#ffb655"/><path d="m17 19h2v2h-2z"/><path d="m27 19h2v2h-2z"/><path d="m23 29a4 4 0 0 0 4-4h-2a2 2 0 0 1 -4 0h-2a4 4 0 0 0 4 4z"/><path d="m49.729 34.886a4 4 0 1 0 2.829 4.9 4 4 0 0 0 -2.829-4.9zm.9 4.382a2 2 0 1 1 -1.932-2.519 2 2 0 0 1 1.932 2.519z"/><path d="m44.588 45.341h2v10h-2z" transform="matrix(.259 -.966 .966 .259 -14.835 81.348)"/><path d="m61.288 11.065.518-1.931-1.806-.483.155-1.123a1 1 0 0 0 -.731-1.1l-3.862-1.037a1 1 0 0 0 -1.186.588l-.427 1.05-1.8-.483-.517 1.932 1.558.422-.379.934-1.441-.391-.517 1.932 1.2.322-.712 1.751a1 1 0 0 0 .668 1.343l-3.777 14.093a8.013 8.013 0 0 0 -6.748 5.863 6.577 6.577 0 0 0 -.136 1.94 3.109 3.109 0 0 1 -.175 1.562 10.179 10.179 0 0 1 -1.811 2.141 10.711 10.711 0 0 0 -1.433-.858 5 5 0 0 0 1.452-4.206l-2.989-22.07a13.039 13.039 0 0 0 -12.882-11.256h-1.02a13.039 13.039 0 0 0 -12.882 11.256l-2.989 22.069a5.008 5.008 0 0 0 1.441 4.2 10.933 10.933 0 0 0 -6.06 9.825v11.65a1 1 0 0 0 1 1h40a.986.986 0 0 0 .952-.762 14.426 14.426 0 0 0 2.677.265 11.152 11.152 0 0 0 5.462-1.355 10.678 10.678 0 0 0 5.088-6.7c.7-2.625-.093-5.074-.8-7.235a14.256 14.256 0 0 1 -.925-4.135 3.116 3.116 0 0 1 .63-1.439 6.549 6.549 0 0 0 .85-1.748 8 8 0 0 0 -2.909-8.46l3.775-14.087a1.033 1.033 0 0 0 .258.034 1 1 0 0 0 .991-.863l.259-1.873 1.2.322.517-1.932-1.441-.386.138-1zm-5.388-3.514 2.16.578-.828 5.99-3.609-.967zm-17.955 51.165a12.845 12.845 0 0 0 2.155 1.284h-2.9a8.473 8.473 0 0 0 .745-1.284zm-2.911.778a5.2 5.2 0 0 0 -.476.506h-23.115a5.456 5.456 0 0 0 -.476-.506 8.1 8.1 0 0 1 -1.967-5.494 8.268 8.268 0 0 1 1.873-5.409 8.963 8.963 0 0 0 2.512-5.38l.354-3.517 2.261-.708v8.014a1 1 0 0 0 1 1c1.857 0 5 .632 5 3a1 1 0 0 0 2 0c0-2.368 3.143-3 5-3a1 1 0 0 0 1-1v-8.014l2.261.708.354 3.514a8.9 8.9 0 0 0 1.4 3.965c-.006.021-.015.041-.021.062a10.682 10.682 0 0 0 1.056 8.348 10.509 10.509 0 0 0 1.316 1.74 5.864 5.864 0 0 1 -1.332 2.171zm-3.034-43.494v7a9 9 0 0 1 -18 0v-7zm-12 21v-3.426a10.776 10.776 0 0 0 6 0v3.426a1 1 0 0 0 .7.954l1.3.406v7.683a7.382 7.382 0 0 0 -5 2.173 7.382 7.382 0 0 0 -5-2.173v-7.683l1.3-.406a1 1 0 0 0 .7-.954zm15.062 7.886a6.978 6.978 0 0 1 -.462-1.876l-.268-2.667 1.347.422a8.828 8.828 0 0 1 2.163 1.016 15.993 15.993 0 0 0 -2.78 3.105zm.668-6.2-2.13-.67a3.974 3.974 0 0 0 1.4-3.016h-2a2 2 0 0 1 -2 2h-.652l-2.348-.734v-3.48a11 11 0 0 0 6-9.786v-1a2.966 2.966 0 0 0 1.5-.418l1.9 14.018a3 3 0 0 1 -1.67 3.083zm-1.73-20.686a1 1 0 0 1 0 2zm-11.51-14h1.02a11.03 11.03 0 0 1 10.9 9.523l.35 2.586a2.973 2.973 0 0 0 -.76-.109v-1a1 1 0 0 0 -1-1h-3v-2h-2v2h-2v-4h-2v4h-11a1 1 0 0 0 -1 1v1a2.973 2.973 0 0 0 -.759.109l.35-2.586a11.03 11.03 0 0 1 10.899-9.523zm-10.49 16a1 1 0 0 1 0-2zm-3.4 15.594 1.9-14.012a2.966 2.966 0 0 0 1.5.418v1a11 11 0 0 0 6 9.786v3.479l-2.35.735h-.65a2 2 0 0 1 -2-2h-2a3.974 3.974 0 0 0 1.4 3.016l-2.132.667a3 3 0 0 1 -1.668-3.089zm-4.6 13.756a8.95 8.95 0 0 1 6.318-8.586l1.345-.421-.263 2.668a6.955 6.955 0 0 1 -1.95 4.175 10.234 10.234 0 0 0 -2.45 6.814 10.752 10.752 0 0 0 1.791 6h-4.791zm51.007-10.978a4.976 4.976 0 0 1 -.617 1.208 4.667 4.667 0 0 0 -.932 2.512 15.9 15.9 0 0 0 1.023 4.738c.677 2.08 1.317 4.046.766 6.1a8.7 8.7 0 0 1 -4.125 5.47 10.448 10.448 0 0 1 -7.863.635 10.432 10.432 0 0 1 -6.492-4.481 8.7 8.7 0 0 1 -.838-6.8c.55-2.054 2.087-3.437 3.715-4.9a15.951 15.951 0 0 0 3.253-3.59 4.674 4.674 0 0 0 .45-2.643 4.915 4.915 0 0 1 .069-1.355 6.007 6.007 0 0 1 5.785-4.45 6.061 6.061 0 0 1 1.564.207 6 6 0 0 1 4.242 7.35zm-2.777-8.956a7.292 7.292 0 0 0 -1.93-.516l3.642-13.59 1.932.517z"/></g></svg>